PathFileType	4	(X/Y/Z)	C:\Users\Basilio\Documents\Thesis Gigler\squatting_fais\c3dfiles\040\SLS_pre_front1\markers_experimental.trc
DataRate	CameraRate	NumFrames	NumMarkers	Units	OrigDataRate	OrigDataStartFrame	OrigNumFrames
200.000000	200.000000	4	62	mm	200.000000	423	1129
Frame#	Time	FHD			LBHD			RBHD			C7			T10			CLAV			LSHO			LUUPA			LMUPA			LDUPA			LLEP			LMEP			LRAD			LUL			LRFIN			RSHO			RUPA1			RMUPA			RDUPA			RLEP			RMEP			RRAD			RUL			RUFIN			LASI			RASI			USACR			LSACR			RSACR			LTHI1			LTHI2			LTHI3			LTHI4			LLFC			LMFC			LTIB1			LTIB2			LTIB3			LTIB4			LLMAL			LMMAL			LHEE			LMT1			LMT2			LMT5			RTHI			RTHI2			RTHI3			RTHI4			RLFC			RMFC			RTIB1			RTIB2			RTIB3			RTIB4			RLMAL			RMMAL			RHEE			RMT1			RMT2			RMT5			*61			
		X1	Y1	Z1	X2	Y2	Z2	X3	Y3	Z3	X4	Y4	Z4	X5	Y5	Z5	X6	Y6	Z6	X7	Y7	Z7	X8	Y8	Z8	X9	Y9	Z9	X10	Y10	Z10	X11	Y11	Z11	X12	Y12	Z12	X13	Y13	Z13	X14	Y14	Z14	X15	Y15	Z15	X16	Y16	Z16	X17	Y17	Z17	X18	Y18	Z18	X19	Y19	Z19	X20	Y20	Z20	X21	Y21	Z21	X22	Y22	Z22	X23	Y23	Z23	X24	Y24	Z24	X25	Y25	Z25	X26	Y26	Z26	X27	Y27	Z27	X28	Y28	Z28	X29	Y29	Z29	X30	Y30	Z30	X31	Y31	Z31	X32	Y32	Z32	X33	Y33	Z33	X34	Y34	Z34	X35	Y35	Z35	X36	Y36	Z36	X37	Y37	Z37	X38	Y38	Z38	X39	Y39	Z39	X40	Y40	Z40	X41	Y41	Z41	X42	Y42	Z42	X43	Y43	Z43	X44	Y44	Z44	X45	Y45	Z45	X46	Y46	Z46	X47	Y47	Z47	X48	Y48	Z48	X49	Y49	Z49	X50	Y50	Z50	X51	Y51	Z51	X52	Y52	Z52	X53	Y53	Z53	X54	Y54	Z54	X55	Y55	Z55	X56	Y56	Z56	X57	Y57	Z57	X58	Y58	Z58	X59	Y59	Z59	X60	Y60	Z60	X61	Y61	Z61	X62	Y62	Z62	

424	2.115	-228.4258422851563	1733.309814453125	-1142.737426757813	-351.0368957519532	1680.8974609375	-1187.090698242188	-407.3594055175782	1643.40283203125	-1056.619750976563	-421.5307006835939	1521.921875	-1098.8193359375	-460.6208801269532	1207.696411132813	-1076.122680664063	-292.6036987304688	1454.671630859375	-1103.5810546875	-353.3371276855469	1508.4111328125	-1247.33349609375	-197.8526153564454	1433.96240234375	-1315.24169921875	-166.8971862792969	1446.491943359375	-1278.08642578125	-131.2265167236328	1413.601806640625	-1314.42578125	-78.63428497314455	1378.665771484375	-1311.511108398438	-98.92862701416018	1325.2041015625	-1275.992065429688	nan	nan	nan	191.9098358154297	1368.90673828125	-1240.134399414063	260.4987182617188	1370.318603515625	-1148.1044921875	-320.4242248535157	1493.75048828125	-955.5747680664065	-171.1224822998047	1400.764770507813	-890.4838867187502	-140.641830444336	1419.933227539063	-923.0781250000002	-105.3066940307617	1377.277954101563	-897.6730957031252	-46.7610206604004	1359.906494140625	-913.6041259765627	-69.65811157226564	1303.385620117188	-959.457458496094	197.0010223388672	1367.107788085938	-1079.731201171875	217.6349487304688	1353.933837890625	-1006.514282226563	289.7432861328126	1366.01806640625	-1096.228271484375	-285.3761291503907	1029.610595703125	-1177.46728515625	-285.1729431152344	1043.359741210938	-951.4141845703127	-471.8044433593751	1066.287231445313	-1059.091918945313	-478.4463806152345	1035.136596679688	-1086.009399414063	-477.965301513672	1036.534057617188	-1029.133911132813	-331.5187683105469	758.0101318359376	-1224.779907226563	-270.1387023925782	698.9536132812501	-1229.365600585938	-227.4963684082032	716.8328247070314	-1237.188110351563	-271.2872619628907	642.4263305664064	-1210.977416992188	-213.2687530517579	525.5967407226564	-1195.565063476563	-209.5516815185547	522.5175170898439	-1067.383544921875	-214.2399902343751	306.7874755859376	-1128.017700195313	-292.7588500976563	283.3111572265626	-1162.780639648438	-253.5418243408204	267.1710205078126	-1148.90478515625	-263.5612182617188	194.4963073730469	-1102.806640625	-352.7146301269532	126.1126785278321	-1105.1923828125	-313.0972900390626	140.3403015136719	-1026.14501953125	-413.2478942871095	97.25328063964847	-1047.81103515625	-199.9117126464844	56.32229232788087	-1049.95703125	-205.4360504150391	51.47118377685548	-1095.8134765625	-262.0560913085938	37.65821075439454	-1137.756713867188	-247.0958099365235	792.4771728515627	-871.0379028320315	-191.7837829589844	756.4849243164064	-877.3776855468752	-164.2847290039063	770.5527954101565	-888.489685058594	-186.076644897461	673.0336914062501	-888.3435668945315	-118.2764587402344	558.3990478515626	-898.3139648437502	-119.2006378173828	547.8631591796876	-1033.403442382813	10.0662145614624	415.1276855468751	-924.9965820312502	-17.54499053955078	314.2356567382813	-896.0155029296877	23.56524085998536	330.3628234863282	-909.6746826171877	58.62187576293947	297.3820495605469	-942.7503662109377	69.50518798828126	170.1498718261719	-918.0501098632815	71.90670013427736	191.5613555908203	-1004.674682617188	30.76257514953614	98.58439636230472	-967.2944335937502	228.0736694335938	195.0111389160157	-1001.162170410156	226.6353302001954	196.5420074462891	-961.246765136719	210.1608886718751	153.61083984375	-907.4185791015627	nan	nan	nan	
425	2.12	-228.0681152343751	1732.035766601563	-1142.936401367188	-350.5784912109376	1679.345947265625	-1187.126586914063	-406.9161987304689	1641.932983398438	-1056.440551757813	-421.6773071289064	1520.951416015625	-1098.554931640625	-461.078094482422	1206.557983398438	-1076.033081054688	-292.0879821777344	1453.40087890625	-1103.640747070313	-353.0657348632813	1507.227783203125	-1247.178100585938	-197.6808471679688	1433.235229492188	-1315.227905273438	-166.8501739501953	1445.6357421875	-1277.971313476563	-130.9971008300782	1412.726928710938	-1314.457885742188	-78.41846466064455	1377.727172851563	-1311.656372070313	-98.55745697021487	1324.353271484375	-1276.287963867188	nan	nan	nan	191.5845947265625	1368.27978515625	-1240.347534179688	260.8529968261719	1369.275268554688	-1148.57666015625	-319.8791809082032	1492.364501953125	-955.5666503906252	-170.6296691894532	1399.855834960938	-890.632751464844	-140.3440704345703	1418.483032226563	-923.0635375976565	-104.7654342651367	1375.91748046875	-898.0921020507815	-46.49346923828126	1358.686767578125	-913.4602661132815	-68.47747039794923	1302.376098632813	-960.0844726562502	197.6513977050782	1365.952270507813	-1079.939086914063	218.7599792480469	1353.189575195313	-1006.317993164063	290.3192749023438	1364.579467773438	-1096.452392578125	-286.4290161132813	1028.2587890625	-1177.26123046875	-286.0388183593751	1041.798461914063	-951.4718017578127	-472.7964782714845	1065.246704101563	-1059.020385742188	-479.254608154297	1033.885009765625	-1085.986938476563	-479.0159301757814	1035.4130859375	-1028.980712890625	-331.2395019531251	756.4569091796876	-1225.081420898438	-269.6420288085938	697.9271240234376	-1229.59130859375	-227.3996582031251	716.2473754882814	-1237.59375	-270.4447021484376	641.4362792968751	-1211.08837890625	-211.9114685058594	524.9003295898439	-1195.73095703125	-208.0490722656251	521.7706909179689	-1067.72509765625	-213.6869049072266	306.1206665039063	-1127.84521484375	-292.2186584472657	283.0201721191407	-1162.85498046875	-253.4537353515626	266.9082641601563	-1148.816284179688	-263.2425842285157	194.2189331054688	-1102.721069335938	-352.5743408203126	126.0765380859375	-1105.112548828125	-313.2184753417969	140.8755798339844	-1026.305297851563	-413.2172241210939	97.1802673339844	-1047.794555664063	-200.3497924804688	56.73991012573244	-1049.874267578125	-205.3508911132813	51.55650711059572	-1095.849731445313	-262.0530090332032	37.67586517333985	-1137.756225585938	-247.7830657958985	790.9971923828127	-870.8062744140627	-192.4036254882813	755.1088867187501	-877.4514770507815	-164.7994842529297	769.8349609375002	-888.2575683593752	-186.3986968994141	671.9948120117189	-888.2337036132815	-117.8440246582032	557.8123779296876	-898.208435058594	-118.77197265625	547.3484497070314	-1033.175903320313	10.99430942535401	414.9709777832032	-924.795349121094	-16.46212577819825	314.1117858886719	-895.7991333007815	25.21139335632325	330.6603393554688	-908.7495727539065	60.2870445251465	296.8700561523438	-942.4516601562502	70.82742309570314	170.1437683105469	-917.431579589844	73.26378631591798	191.0553436279297	-1004.434143066406	32.58959579467774	98.14669036865237	-966.9375000000002	230.1239776611329	195.9062652587891	-1000.509155273438	227.6050262451172	196.5235443115235	-960.9612426757815	211.456527709961	153.9885864257813	-907.1369628906252	nan	nan	nan	
426	2.125	-227.8348083496094	1730.313720703125	-1142.839111328125	-350.3326110839844	1677.812377929688	-1187.0244140625	-406.3414916992189	1640.2587890625	-1056.486206054688	-421.1151428222657	1519.578979492188	-1098.393676757813	-461.4612731933595	1205.312255859375	-1075.926391601563	-291.9043579101563	1451.685180664063	-1103.662963867188	-352.8931274414063	1506.10400390625	-1246.967163085938	-197.4217376708985	1432.16455078125	-1315.27783203125	-166.5081939697266	1444.352172851563	-1277.981079101563	-130.7255096435547	1411.752807617188	-1314.4306640625	-78.24200439453126	1376.84814453125	-1311.6435546875	-98.25116729736331	1323.51318359375	-1276.460327148438	nan	nan	nan	191.881820678711	1367.51123046875	-1240.6318359375	261.1519165039063	1368.04345703125	-1148.812866210938	-319.5875549316407	1490.903076171875	-955.5908813476565	-170.1876983642578	1398.729370117188	-890.6375732421877	-139.7596588134766	1417.347290039063	-923.3115844726565	-104.3204116821289	1374.576171875	-897.9327392578127	-45.49885177612305	1356.798828125	-913.3765258789065	-67.87704467773439	1301.068725585938	-960.2700805664065	198.1038055419922	1364.705444335938	-1080.186279296875	219.2272644042969	1352.108276367188	-1006.559692382813	290.9559326171876	1363.607299804688	-1096.71826171875	-287.1703796386719	1026.319580078125	-1177.328247070313	-286.6416931152344	1040.49755859375	-951.833435058594	-473.4485473632814	1063.952270507813	-1059.0849609375	-480.147918701172	1032.637451171875	-1085.874267578125	-479.8127441406251	1034.172607421875	-1029.00732421875	-331.1063232421876	755.0024414062501	-1225.218383789063	-269.0745239257813	696.7908935546876	-1229.738403320313	-226.9166259765626	715.3196411132814	-1237.771606445313	-269.5288085937501	640.3769531250001	-1211.39111328125	-210.7730407714844	524.2091064453126	-1196.00439453125	-207.1291503906251	521.1227416992189	-1067.895385742188	-213.0777587890626	305.8562316894532	-1127.801513671875	-291.7311706542969	282.7472229003907	-1162.837646484375	-252.8628540039063	266.4229736328126	-1149.08154296875	-262.8956604003907	193.7544708251954	-1102.505493164063	-353.7215881347657	126.2752075195313	-1105.777465820313	-312.9570617675782	140.503890991211	-1026.199096679688	-413.1993103027345	97.14559173583987	-1047.76708984375	-199.9933776855469	56.32315063476564	-1049.851684570313	-205.4197845458985	51.47157287597658	-1095.822387695313	-262.0838623046876	37.66377258300782	-1137.726806640625	-247.9509429931641	790.1290283203127	-870.5664672851565	-192.5512847900391	754.3783569335939	-877.6307373046877	-165.1157684326172	768.9695434570315	-887.9553833007815	-186.2310791015625	671.3465576171876	-888.221862792969	-117.5698699951172	557.1464843750001	-897.944763183594	-118.1258316040039	546.6322021484376	-1032.830444335938	11.75326442718506	414.9181518554689	-924.3801879882815	-15.2913875579834	313.8745117187501	-895.4851684570315	25.68960762023926	329.9569396972657	-908.9215087890627	60.91623306274415	296.9370727539063	-942.161560058594	72.25131225585939	170.5162658691407	-916.823425292969	74.43630981445314	191.4871673583985	-1003.893432617188	33.84928131103516	98.08750152587893	-966.4882812500002	231.7094116210938	196.1893768310547	-1000.030334472656	229.1106109619141	196.9812164306641	-960.5155029296877	212.7784576416016	154.2410888671875	-906.6971435546877	nan	nan	nan	
427	2.13	-226.1198883056641	1728.544799804688	-1142.7421875	-350.0932617187501	1676.375610351563	-1186.957397460938	-406.0510864257814	1638.71142578125	-1056.331665039063	-420.7969055175782	1518.324829101563	-1098.171508789063	-461.8569335937501	1204.205078125	-1075.835815429688	-291.5600891113282	1450.248901367188	-1103.670776367188	-352.5402526855469	1504.75341796875	-1246.78369140625	-197.1446990966797	1431.134521484375	-1315.1279296875	-166.3084564208985	1443.4453125	-1277.991821289063	-130.3392028808594	1410.751831054688	-1314.534057617188	-77.9956741333008	1375.943115234375	-1311.799926757813	-97.88167572021487	1322.537231445313	-1276.682861328125	nan	nan	nan	192.1435546875001	1366.592163085938	-1240.65478515625	261.3449707031251	1367.061279296875	-1148.924194335938	-318.8601379394532	1489.45263671875	-955.5838012695315	-169.6917724609375	1397.461547851563	-890.4855957031252	-139.2969818115235	1416.253051757813	-923.406433105469	-103.6911239624024	1373.3896484375	-898.461120605469	-45.20005798339844	1355.993041992188	-913.7605590820315	-67.3907928466797	1299.633666992188	-960.4024047851565	198.6715545654297	1363.486694335938	-1080.339599609375	220.0599822998047	1350.985229492188	-1006.951293945313	291.3580322265626	1362.151000976563	-1096.685302734375	-287.9915161132813	1024.987548828125	-1177.424560546875	-287.4891357421876	1038.9326171875	-951.8509521484377	-474.1234130859376	1063.111206054688	-1058.912231445313	-479.937713623047	1031.200317382813	-1085.469604492188	-480.9234619140626	1032.974731445313	-1029.133911132813	-330.1973266601563	752.9669799804689	-1225.279418945313	-268.6931762695313	695.9008178710939	-1230.105712890625	-226.6082916259766	714.5469360351564	-1237.966674804688	-268.7688598632813	639.3394775390626	-1211.6904296875	-209.4279479980469	523.5001220703126	-1196.31005859375	-205.8575897216797	520.3729248046876	-1068.318725585938	-211.9577331542969	305.4756469726563	-1128.393188476563	-291.2193603515626	282.4248352050782	-1163.006591796875	-252.3011627197266	265.8854980468751	-1149.264038085938	-262.7874755859376	193.4564971923829	-1102.45458984375	-353.6090698242188	126.1900482177735	-1105.821655273438	-312.6894836425782	140.3707733154297	-1026.23388671875	-413.2371215820314	97.15134429931643	-1047.710571289063	-200.3516845703126	56.82081985473634	-1049.859741210938	-205.3956298828126	51.57360076904298	-1095.874633789063	-262.0774841308594	37.64544296264649	-1137.730712890625	-248.5099182128907	789.0805664062502	-870.4582519531252	-192.8579101562501	753.3816528320314	-877.5540161132815	-165.3667907714844	768.1060791015627	-887.8607177734377	-186.1350402832032	670.5831298828126	-888.0764770507815	-117.1579208374024	556.6739501953126	-897.634216308594	-117.4264450073242	546.0908203125001	-1032.740600585938	12.46361637115479	414.7092590332032	-924.0208129882815	-14.37643337249756	313.6473999023438	-895.2145996093752	26.68919944763184	330.0052185058594	-908.536560058594	62.00457000732423	296.7962036132813	-941.8446044921877	73.56491851806642	169.9180450439453	-916.7215576171877	76.13534545898439	191.1296997070313	-1003.505615234375	35.40481567382813	97.90901947021487	-966.0096435546877	232.7792358398438	196.414779663086	-999.535827636719	230.4132995605469	197.3338012695313	-959.9718017578127	214.0320434570313	154.3097229003907	-905.8454589843752	nan	nan	nan	
